<svg id="Слой_1" data-name="Слой 1" xmlns="http://www.w3.org/2000/svg" viewBox="0 0 64.93 64.9"><defs><style>.cls-1{fill:#feca16;}</style></defs><title>Сайт</title><path class="cls-1" d="M15.77,38.3H13c-.12,0-.16,0-.18-.14a22.76,22.76,0,0,1-.72-6.36,21.92,21.92,0,0,1,.39-3.53q.15-.75.33-1.5c0-.1.06-.14.18-.14h5.54c.06,0,.15,0,.14.1a29.54,29.54,0,0,0-.23,3.39,50.6,50.6,0,0,0,.1,5.08c.07,1,.13,1.95.14,2.93,0,.13,0,.16-.17.16Z"/><path class="cls-1" d="M22.16,49.82s0,0,0,.11a25.6,25.6,0,0,1-7-6.53.11.11,0,0,1,.11,0h4.29c.1,0,.16,0,.18.12a19.55,19.55,0,0,0,1,3.35A24.86,24.86,0,0,0,22.16,49.82Z"/><path class="cls-1" d="M22.2,15c-.09.18-.17.37-.26.55a30.35,30.35,0,0,0-2,4.93c-.09.31-.16.62-.24.93,0,.09,0,.14-.15.13s-.23,0-.35,0h-4.1A24.76,24.76,0,0,1,22.2,15Z"/><path class="cls-1" d="M29.84,43.51q0,4.18,0,8.37V52a5,5,0,0,1-.56-.45A11.85,11.85,0,0,1,27,48.77a21.35,21.35,0,0,1-1.81-4c-.16-.48-.32-1-.46-1.46h4.92C29.8,43.36,29.84,43.39,29.84,43.51Z"/><path class="cls-1" d="M29.84,26.83c0,1.83,0,3.67,0,5.51s0,3.68,0,5.53c0,.14,0,.18-.18.18H23.91c-.14,0-.17,0-.19-.18a23.49,23.49,0,0,1-.2-2.79c0-1.32-.05-2.65,0-4,0-1.08.16-2.15.3-3.21.05-.36.1-.72.14-1.08,0-.13.06-.19.2-.19,1.83,0,3.66,0,5.48,0C29.81,26.63,29.84,26.68,29.84,26.83Z"/><path class="cls-1" d="M29,13.83a7.35,7.35,0,0,1,.84-.63v1.63q0,3.41,0,6.81c0,.16,0,.19-.19.19H24.92c-.13,0-.16,0-.12-.15A25.09,25.09,0,0,1,27,16.43,10.82,10.82,0,0,1,29,13.83Z"/><path class="cls-1" d="M39.82,43.11c.14,0,.15,0,.11.15a26.63,26.63,0,0,1-2,4.93c-.24.43-.51.84-.77,1.25a9.73,9.73,0,0,1-1.65,1.86,5,5,0,0,1-.53.37c-.07,0-.1,0-.1-.05v-4.2h0V43.27c0-.12,0-.16.16-.16Z"/><path class="cls-1" d="M34.9,21.43V13.21a6,6,0,0,1,.87.65,12.17,12.17,0,0,1,2.38,3.23,25.79,25.79,0,0,1,1.77,4.32.75.75,0,0,1,0,.16H35.05C34.93,21.58,34.9,21.54,34.9,21.43Z"/><path class="cls-1" d="M41,26.77a39.55,39.55,0,0,1,.48,6.34c0,1.15-.13,2.29-.27,3.43L41,38.13c0,.11,0,.17-.19.17H35.06c-.13,0-.16,0-.16-.16V32.47h0V29.62c0-.94,0-1.89,0-2.83,0-.13,0-.16.16-.15h5.78C40.94,26.63,41,26.66,41,26.77Z"/><path class="cls-1" d="M49.29,43.37h.05a21.55,21.55,0,0,1-6.79,6.55.2.2,0,0,0,0,0,42.27,42.27,0,0,0,2-5.06L45,43.47c0-.07,0-.11.14-.11Z"/><path class="cls-1" d="M42.59,15.14a.34.34,0,0,1,0-.12,25.31,25.31,0,0,1,7.06,6.55H45.17c-.1,0-.15,0-.17-.13A21.51,21.51,0,0,0,42.59,15.14Z"/><path class="cls-1" d="M51.92,26.78a23.2,23.2,0,0,1,.72,6.32,22.67,22.67,0,0,1-.36,3.39c-.11.56-.23,1.11-.36,1.67,0,.1-.06.14-.18.14H46.2c-.13,0-.15,0-.13-.16a20.79,20.79,0,0,0,.18-2.09c.08-1.91.06-3.82,0-5.72a28.56,28.56,0,0,0-.23-3.58c0-.13,0-.11.13-.11h5.54C51.85,26.63,51.89,26.67,51.92,26.78Z"/><path class="cls-1" d="M64.6,15.41A26.77,26.77,0,0,0,63.23,8.9,11.44,11.44,0,0,0,58.76,3,16.51,16.51,0,0,0,53.08.86,38,38,0,0,0,45.33.05c-4.28,0-8.57,0-12.86,0V0H27.92A120.73,120.73,0,0,0,15,.35,27.11,27.11,0,0,0,8.85,1.71a11.3,11.3,0,0,0-6.41,5.5A20,20,0,0,0,.59,13.28,52.83,52.83,0,0,0,0,21.22q0,7.71,0,15.4A128.33,128.33,0,0,0,.33,49.48a25.68,25.68,0,0,0,1.51,6.87,11.22,11.22,0,0,0,5.71,6.28,21.1,21.1,0,0,0,6.23,1.74,57.62,57.62,0,0,0,8.09.5c3.47,0,7,0,10.42,0,5.53-.05,11.07.22,16.59-.25a26.76,26.76,0,0,0,7.24-1.45,11.32,11.32,0,0,0,6.61-6,22.67,22.67,0,0,0,1.78-6.76,55.69,55.69,0,0,0,.4-6.71q0-8.31,0-16.6A114.12,114.12,0,0,0,64.6,15.41ZM57.71,33.32l0,.17A24.75,24.75,0,0,1,57.11,38a25.17,25.17,0,0,1-1.84,5.34,25.49,25.49,0,0,1-7.35,9.15,25.28,25.28,0,0,1-4.92,3,24.93,24.93,0,0,1-5.39,1.8c-.92.19-1.85.33-2.78.43-.3,0-.61,0-.91.09H30.78a.16.16,0,0,0-.13,0c-.49,0-1-.08-1.45-.14a24,24,0,0,1-3.77-.77,25.18,25.18,0,0,1-7.72-3.72,26.15,26.15,0,0,1-5.09-4.82c-.41-.51-.8-1-1.17-1.58a25.21,25.21,0,0,1-2-3.61,24.81,24.81,0,0,1-1.86-5.57,25.25,25.25,0,0,1-.45-3.24,25.9,25.9,0,0,1,.71-8A25.44,25.44,0,0,1,10,20.7a26,26,0,0,1,3-4.43,25.77,25.77,0,0,1,8-6.42A24.77,24.77,0,0,1,28.06,7.5a25.75,25.75,0,0,1,3.73-.37,24.2,24.2,0,0,1,3.61.19c.48.06,1,.13,1.43.21a23.4,23.4,0,0,1,3.3.82A25.59,25.59,0,0,1,52.5,17.13a25,25,0,0,1,4.9,11.42,18.41,18.41,0,0,1,.27,3,.18.18,0,0,0,0,.13Z"/></svg>