<svg id="Слой_1" data-name="Слой 1" xmlns="http://www.w3.org/2000/svg" viewBox="0 0 64.93 64.9"><defs><style>.cls-1{fill:#feca16;}</style></defs><title>вк</title><path class="cls-1" d="M32.47,0c4.29,0,8.58,0,12.87,0a38.74,38.74,0,0,1,7.74.81A16.53,16.53,0,0,1,58.76,3a11.43,11.43,0,0,1,4.48,5.85,26.28,26.28,0,0,1,1.36,6.52,116.93,116.93,0,0,1,.33,11.69q0,8.31,0,16.6a55.85,55.85,0,0,1-.4,6.72,22.66,22.66,0,0,1-1.77,6.76,11.35,11.35,0,0,1-6.62,6,26.69,26.69,0,0,1-7.24,1.46c-5.52.46-11.06.19-16.59.25-3.47,0-6.95,0-10.42,0a57.4,57.4,0,0,1-8.08-.51,20.5,20.5,0,0,1-6.24-1.74,11.17,11.17,0,0,1-5.71-6.27A26.15,26.15,0,0,1,.33,49.48,128.33,128.33,0,0,1,0,36.62q0-7.69,0-15.4A50.24,50.24,0,0,1,.6,13.28,19.59,19.59,0,0,1,2.45,7.21a11.2,11.2,0,0,1,6.4-5.5A26.67,26.67,0,0,1,15,.35,120.47,120.47,0,0,1,27.92,0c1.52,0,3,0,4.55,0ZM36.2,27.11c0-1.59,0-3.18,0-4.76,0-1.42-.42-1.76-1.73-1.75-2.26,0-4.52,0-6.78,0a2.22,2.22,0,0,0-.68.08,1.07,1.07,0,0,0-.66,1.54,4.19,4.19,0,0,0,.49.7,5.29,5.29,0,0,1,1.24,3.52c0,2.36,0,4.72,0,7.08a4.43,4.43,0,0,1-.07.81c-.16.75-.69,1-1.37.59a4.37,4.37,0,0,1-1-.89,24.72,24.72,0,0,1-3.53-5.3,48,48,0,0,1-2.83-6.6,1.92,1.92,0,0,0-2.18-1.52H13.8a10.36,10.36,0,0,0-1.76.05,1.2,1.2,0,0,0-1.11,1.51A16.35,16.35,0,0,0,12,26.07a50.21,50.21,0,0,0,7.3,12.79,19,19,0,0,0,9.91,6.92,12.53,12.53,0,0,0,5.34.38c1.26-.18,1.64-.66,1.64-1.92V40a3.45,3.45,0,0,1,0-.64.84.84,0,0,1,.85-.75,3,3,0,0,1,1.83.47,18.27,18.27,0,0,1,3.68,3c1.07,1.06,2,2.24,3.08,3.29a2.91,2.91,0,0,0,2.2.88c.9,0,1.8,0,2.7,0s1.52,0,2.27,0a1.3,1.3,0,0,0,1.24-1.74,4.37,4.37,0,0,0-.42-1,25.54,25.54,0,0,0-3.1-4.14c-1.1-1.31-2.37-2.44-3.52-3.69-.93-1-.94-1.44-.17-2.56l.14-.21a83.87,83.87,0,0,0,5.13-8.15A9.25,9.25,0,0,0,53.23,22a1,1,0,0,0-.93-1.32,3.55,3.55,0,0,0-.47-.06H46.94A2,2,0,0,0,45,22c-.13.31-.26.61-.4.9a37.06,37.06,0,0,1-5.13,8.43,7.16,7.16,0,0,1-1.67,1.53c-.86.55-1.51.2-1.55-.82V27.11Z"/></svg>