<svg id="Слой_1" data-name="Слой 1" xmlns="http://www.w3.org/2000/svg" viewBox="0 0 65.06 65.05"><defs><style>.cls-1{fill:#fdc52a;}</style></defs><title>инст</title><path class="cls-1" d="M32.55,0H45.64A19.43,19.43,0,0,1,64.19,13.66,18.82,18.82,0,0,1,65,17.6c.07.71.1,1.43.1,2.14,0,8.63,0,17.25,0,25.87a19,19,0,0,1-6,14.11,19.3,19.3,0,0,1-13.28,5.33H19.34A19.32,19.32,0,0,1,0,45.73c0-8.8,0-17.6,0-26.4A18.83,18.83,0,0,1,5,6.42,19,19,0,0,1,15.17.47,18,18,0,0,1,18.36,0C19,0,19.6,0,20.23,0Zm-26,32.52c0,4.39,0,8.78,0,13.17A12.64,12.64,0,0,0,7,49.1a12.83,12.83,0,0,0,12.41,9.41H45.61a13.78,13.78,0,0,0,1.92-.14,12.85,12.85,0,0,0,11-12.72q0-13.14,0-26.27c0-.36,0-.73,0-1.1a12.67,12.67,0,0,0-1.49-5A12.81,12.81,0,0,0,45.78,6.56H19.26a12.29,12.29,0,0,0-2.7.31,12.83,12.83,0,0,0-10,12.56C6.54,23.79,6.55,28.16,6.55,32.52Z"/><path class="cls-1" d="M32.53,15.7A16.83,16.83,0,1,1,15.7,32.31,16.84,16.84,0,0,1,32.53,15.7Zm0,27.11A10.28,10.28,0,1,0,22.25,32.49,10.29,10.29,0,0,0,32.5,42.81Z"/><path class="cls-1" d="M53.41,15.83a4,4,0,1,1-4-4A4,4,0,0,1,53.41,15.83Z"/></svg>